<?xml version="1.0" encoding="UTF-8" standalone="no"?>
<svg width="32px" height="32px" viewBox="0 0 32 32" version="1.1" xmlns="http://www.w3.org/2000/svg" xmlns:xlink="http://www.w3.org/1999/xlink" xmlns:sketch="http://www.bohemiancoding.com/sketch/ns">
    <!-- Generator: Sketch 3.3.2 (12043) - http://www.bohemiancoding.com/sketch -->
    <title>Shape + Hosted with Github P</title>
    <desc>Created with Sketch.</desc>
    <defs></defs>
    <g id="Page-1" stroke="none" stroke-width="1" fill="none" fill-rule="evenodd" sketch:type="MSPage">
        <g id="Desktop-HD" sketch:type="MSArtboardGroup" transform="translate(-615.000000, -2700.000000)" fill="#666666">
            <g id="Shape-+-Hosted-with-Github-P" sketch:type="MSLayerGroup" transform="translate(615.000000, 2700.000000)">
                <path d="M32,16.7818627 C32,20.2679739 30.9826389,23.4033905 28.9479167,26.1881127 C26.9131944,28.972835 24.2847222,30.8999183 21.0625,31.9693627 C20.6875,32.0388072 20.4131944,31.9901961 20.2395833,31.8235294 C20.0659722,31.6568627 19.9791667,31.4485294 19.9791667,31.1985294 L19.9791667,26.8026961 C19.9791667,25.4554739 19.6180556,24.4693627 18.8958333,23.8443627 C19.6875,23.7610294 20.3993056,23.6360294 21.03125,23.4693627 C21.6631944,23.3026961 22.3159722,23.0318627 22.9895833,22.6568627 C23.6631944,22.2818627 24.2256944,21.8200572 24.6770833,21.2714461 C25.1284722,20.722835 25.4965278,19.9936683 25.78125,19.0839461 C26.0659722,18.1742239 26.2083333,17.129085 26.2083333,15.9485294 C26.2083333,14.2679739 25.6597222,12.8374183 24.5625,11.6568627 C25.0763889,10.3929739 25.0208333,8.97630719 24.3958333,7.40686275 C24.0069444,7.28186275 23.4444444,7.35825163 22.7083333,7.63602941 C21.9722222,7.91380719 21.3333333,8.21936275 20.7916667,8.55269608 L20,9.05269608 C18.7083333,8.69158497 17.375,8.51102941 16,8.51102941 C14.625,8.51102941 13.2916667,8.69158497 12,9.05269608 C11.7777778,8.8999183 11.4826389,8.7124183 11.1145833,8.49019608 C10.7465278,8.26797386 10.1666667,8.00061275 9.375,7.68811275 C8.58333333,7.37561275 7.98611111,7.28186275 7.58333333,7.40686275 C6.97222222,8.97630719 6.92361111,10.3929739 7.4375,11.6568627 C6.34027778,12.8374183 5.79166667,14.2679739 5.79166667,15.9485294 C5.79166667,17.129085 5.93402778,18.1707516 6.21875,19.0735294 C6.50347222,19.9763072 6.86805556,20.7054739 7.3125,21.2610294 C7.75694444,21.816585 8.31597222,22.2818627 8.98958333,22.6568627 C9.66319444,23.0318627 10.3159722,23.3026961 10.9479167,23.4693627 C11.5798611,23.6360294 12.2916667,23.7610294 13.0833333,23.8443627 C12.5277778,24.3443627 12.1875,25.0596405 12.0625,25.9901961 C11.7708333,26.129085 11.4583333,26.2332516 11.125,26.3026961 C10.7916667,26.3721405 10.3958333,26.4068627 9.9375,26.4068627 C9.47916667,26.4068627 9.02430556,26.2575572 8.57291667,25.9589461 C8.12152778,25.660335 7.73611111,25.2263072 7.41666667,24.6568627 C7.15277778,24.2124183 6.81597222,23.8513072 6.40625,23.5735294 C5.99652778,23.2957516 5.65277778,23.129085 5.375,23.0735294 L4.95833333,23.0110294 C4.66666667,23.0110294 4.46527778,23.0422794 4.35416667,23.1047794 C4.24305556,23.1672794 4.20833333,23.2471405 4.25,23.3443627 C4.29166667,23.441585 4.35416667,23.5388072 4.4375,23.6360294 C4.52083333,23.7332516 4.61111111,23.816585 4.70833333,23.8860294 L4.85416667,23.9901961 C5.15972222,24.129085 5.46180556,24.3929739 5.76041667,24.7818627 C6.05902778,25.1707516 6.27777778,25.5249183 6.41666667,25.8443627 L6.625,26.3235294 C6.80555556,26.8513072 7.11111111,27.2783905 7.54166667,27.6047794 C7.97222222,27.9311683 8.4375,28.1395016 8.9375,28.2297794 C9.4375,28.3200572 9.92013889,28.3686683 10.3854167,28.3756127 C10.8506944,28.3825572 11.2361111,28.3582516 11.5416667,28.3026961 L12.0208333,28.2193627 C12.0208333,28.7471405 12.0243056,29.3651961 12.03125,30.0735294 C12.0381944,30.7818627 12.0416667,31.1568627 12.0416667,31.1985294 C12.0416667,31.4485294 11.9513889,31.6568627 11.7708333,31.8235294 C11.5902778,31.9901961 11.3125,32.0388072 10.9375,31.9693627 C7.71527778,30.8999183 5.08680556,28.972835 3.05208333,26.1881127 C1.01736111,23.4033905 -3.53715022e-16,20.2679739 0,16.7818627 C0,13.879085 0.715277778,11.2020016 2.14583333,8.75061275 C3.57638889,6.29922386 5.51736111,4.35825163 7.96875,2.92769608 C10.4201389,1.49714052 13.0972222,0.781862745 16,0.781862745 C18.9027778,0.781862745 21.5798611,1.49714052 24.03125,2.92769608 C26.4826389,4.35825163 28.4236111,6.29922386 29.8541667,8.75061275 C31.2847222,11.2020016 32,13.879085 32,16.7818627 L32,16.7818627 Z" id="Shape" sketch:type="MSShapeGroup"></path>
            </g>
        </g>
    </g>
</svg>