<?xml version="1.0" encoding="UTF-8" standalone="no"?>
<svg width="54px" height="61px" viewBox="0 0 54 61" version="1.1" xmlns="http://www.w3.org/2000/svg" xmlns:xlink="http://www.w3.org/1999/xlink" xmlns:sketch="http://www.bohemiancoding.com/sketch/ns">
    <!-- Generator: Sketch 3.3.1 (12002) - http://www.bohemiancoding.com/sketch -->
    <title>Rectangle 1 + Rectangle 1 Copy + Rectangle 3</title>
    <desc>Created with Sketch.</desc>
    <defs></defs>
    <g id="Page-1" stroke="none" stroke-width="1" fill="none" fill-rule="evenodd" sketch:type="MSPage">
        <g id="Rectangle-1-+-Rectangle-1-Copy-+-Rectangle-3" sketch:type="MSLayerGroup" fill="#1B1E21">
            <path d="M27.0161133,17 L25.625,17 L16.0322266,39.909885 L18.7276764,41.440172 L27.0283661,21.874844 L27.0441919,21.8175542 L27.0731812,21.9182468 L35.3045502,41.440172 L38,39.909885 L28.4072266,17 L27.0161133,17 Z" id="Rectangle-1" sketch:type="MSShapeGroup"></path>
            <rect id="Rectangle-3" sketch:type="MSShapeGroup" x="21.5" y="30.8888889" width="11" height="2.77777778"></rect>
            <path d="M26.2552103,3.30203237 L51.2552103,17.6025544 L50.5,16.3005221 L50.5,44.9015662 L51.2552103,43.5995338 L26.2552103,57.9000558 L27.7447897,57.9000558 L2.74478971,43.5995338 L3.5,44.9015662 L3.5,16.3005221 L2.74478971,17.6025544 L27.7447897,3.30203237 L26.2552103,3.30203237 L26.2552103,3.30203237 Z M27.7447897,0.697967629 L27,0.271932365 L26.2552103,0.697967629 L1.25521029,14.9984897 L0.5,15.4304857 L0.5,16.3005221 L0.5,44.9015662 L0.5,45.7716025 L1.25521029,46.2035985 L26.2552103,60.5041206 L27,60.9301558 L27.7447897,60.5041206 L52.7447897,46.2035985 L53.5,45.7716025 L53.5,44.9015662 L53.5,16.3005221 L53.5,15.4304857 L52.7447897,14.9984897 L27.7447897,0.697967629 L27.7447897,0.697967629 Z" id="Shape" sketch:type="MSShapeGroup"></path>
        </g>
    </g>
</svg>