<?xml version="1.0" encoding="UTF-8" standalone="no"?>
<svg width="44px" height="44px" viewBox="0 0 44 44" version="1.1" xmlns="http://www.w3.org/2000/svg" xmlns:xlink="http://www.w3.org/1999/xlink" xmlns:sketch="http://www.bohemiancoding.com/sketch/ns">
    <!-- Generator: Sketch 3.3.1 (12002) - http://www.bohemiancoding.com/sketch -->
    <title>vimeo</title>
    <desc>Created with Sketch.</desc>
    <defs></defs>
    <g id="Social-Icons" stroke="none" stroke-width="1" fill="none" fill-rule="evenodd" sketch:type="MSPage">
        <g sketch:type="MSArtboardGroup" transform="translate(-180.000000, -120.000000)" id="vimeo">
            <g sketch:type="MSLayerGroup" transform="translate(180.000000, 120.000000)">
                <rect id="Rectangle" sketch:type="MSShapeGroup" x="0" y="0" width="44" height="44"></rect>
                <circle id="Oval" stroke="#000000" stroke-width="2" sketch:type="MSShapeGroup" cx="22" cy="22" r="22"></circle>
                <path d="M27.9141025,26.4820786 C25.195311,30.1615105 22.8916292,32 21.0089366,32 C19.8447482,32 18.858128,30.8814527 18.0526037,28.6369992 C17.5128436,26.5777438 16.9766114,24.5184884 16.4380273,22.4653654 C15.8382938,20.2196854 15.1962263,19.0974587 14.5094728,19.0974587 C14.3601274,19.0974587 13.8391825,19.4249281 12.9407583,20.0810935 L12,18.8165954 C12.9854443,17.9151346 13.9567773,17.0099943 14.9151748,16.107307 C16.2275326,14.9225299 17.2141528,14.3007059 17.8726837,14.2357026 C19.4249348,14.0787136 20.3821564,15.1862226 20.7431724,17.5545502 C21.1277074,20.1117554 21.3981754,21.70127 21.5475207,22.3243205 C21.9967328,24.4436733 22.488279,25.5008967 23.0268632,25.5008967 C23.4443247,25.5008967 24.0722808,24.8165224 24.9095557,23.4465472 C25.7468306,22.0741191 26.1925148,21.0316134 26.2536641,20.3128977 C26.3736108,19.1281206 25.9255747,18.5394115 24.9095557,18.5394115 C24.4309449,18.5394115 23.9370468,18.6448886 23.4302133,18.8656545 C24.4180095,15.5308627 26.2995261,13.9094597 29.0794668,14.0038984 C31.1385516,14.0639958 32.1110604,15.4523681 31.9899378,18.1616565 C31.9029177,20.19025 30.54117,22.9633152 27.9141025,26.4820786 Z" id="Shape" fill="#000000" sketch:type="MSShapeGroup"></path>
            </g>
        </g>
    </g>
</svg>